<?xml version="1.0" standalone="no"?>
<!DOCTYPE svg PUBLIC "-//W3C//DTD SVG 20010904//EN"
 "http://www.w3.org/TR/2001/REC-SVG-20010904/DTD/svg10.dtd">
<svg version="1.0" xmlns="http://www.w3.org/2000/svg"
 width="512.000000pt" height="512.000000pt" viewBox="0 0 512.000000 512.000000"
 preserveAspectRatio="xMidYMid meet">
<metadata>
Created by potrace 1.14, written by Peter Selinger 2001-2017
</metadata>
<g transform="translate(0.000000,512.000000) scale(0.100000,-0.100000)"
fill="#000000" stroke="none">
<path d="M470 5113 c-161 -28 -337 -160 -407 -303 -68 -140 -63 33 -60 -2270
l2 -2085 26 -71 c53 -146 153 -259 286 -324 34 -17 71 -33 80 -35 10 -2 38 -8
63 -14 31 -7 692 -10 2100 -11 1785 0 2063 2 2118 15 209 49 378 218 427 426
22 96 22 4141 0 4237 -49 209 -218 378 -428 427 -54 13 -342 14 -2122 13
-1133 0 -2071 -3 -2085 -5z m4141 -502 l29 -29 0 -2022 0 -2022 -29 -29 -30
-29 -2024 0 -2025 0 -26 31 -26 31 0 2020 0 2020 29 29 29 29 2022 0 2022 0
29 -29z"/>
<path d="M3187 4235 c-1 -2 -33 -5 -72 -8 -146 -13 -308 -68 -422 -144 -204
-135 -334 -340 -397 -623 -21 -94 -27 -149 -31 -294 -3 -71 -6 -130 -8 -133
-2 -2 -141 -4 -308 -6 -297 -2 -305 -3 -348 -25 -110 -59 -156 -171 -120 -293
17 -57 90 -130 145 -147 29 -8 133 -12 338 -12 l296 0 1 -27 c4 -119 0 -672
-6 -719 -24 -216 -102 -331 -258 -383 -80 -27 -96 -30 -182 -37 -38 -3 -92 -7
-120 -9 -62 -4 -79 -11 -133 -48 -81 -58 -117 -187 -78 -279 43 -100 124 -149
249 -149 361 0 661 130 821 356 77 108 142 261 162 384 2 14 6 37 9 51 14 77
17 157 18 490 l1 368 317 0 c295 0 320 1 360 20 58 27 91 58 119 112 47 90 29
202 -45 275 -67 67 -100 74 -385 74 -135 0 -273 1 -307 1 l-63 0 5 123 c12
329 105 505 300 572 70 23 118 29 220 26 201 -6 210 -6 256 18 83 43 129 117
129 209 0 140 -91 231 -246 247 -61 6 -212 13 -217 10z"/>
</g>
</svg>
